<svg viewBox="0 0 1024 1024" xmlns="http://www.w3.org/2000/svg">
  <defs>
    <clipPath id="clip">
      <rect width="1024" height="1024" rx="229"/>
    </clipPath>
  </defs>
  <g clip-path="url(#clip)">
    <rect width="1024" height="1024" fill="#1e1e2e"/>
    <path
      fill="#cba6f7"
      transform="translate(168 768) scale(1.286)"
      d="M 172.00 17.00 Q 165.00 17.00 150.00 11.00 Q 135.00 5.00 122.50 -3.50 Q 110.00 -12.00 110.00 -20.00 Q 110.00 -40.00 115.00 -58.50 Q 120.00 -77.00 126.00 -98.00 L 188.00 -317.00 Q 192.00 -331.00 188.50 -338.00 Q 185.00 -345.00 168.00 -345.00 Q 134.00 -345.00 110.00 -337.00 Q 86.00 -329.00 69.50 -309.00 Q 53.00 -289.00 40.00 -251.00 Q 39.00 -247.00 37.50 -241.50 Q 36.00 -236.00 30.00 -236.00 Q 24.00 -236.00 19.50 -246.50 Q 15.00 -257.00 15.00 -276.00 Q 15.00 -297.00 23.50 -320.00 Q 32.00 -343.00 51.50 -363.50 Q 71.00 -384.00 103.50 -397.00 Q 136.00 -410.00 185.00 -410.00 Q 220.00 -410.00 256.00 -408.00 Q 292.00 -406.00 326.00 -404.00 Q 352.00 -403.00 376.50 -401.50 Q 401.00 -400.00 423.00 -400.00 Q 444.00 -400.00 459.50 -405.50 Q 475.00 -411.00 485.00 -417.00 Q 493.00 -422.00 498.50 -426.00 Q 504.00 -430.00 508.00 -430.00 Q 516.00 -430.00 518.50 -423.00 Q 521.00 -416.00 521.00 -399.00 Q 521.00 -385.00 515.00 -369.00 Q 509.00 -353.00 500.50 -342.50 Q 492.00 -332.00 484.00 -332.00 Q 464.00 -332.00 443.00 -334.00 Q 422.00 -336.00 411.00 -336.00 Q 395.00 -336.00 387.50 -331.00 Q 380.00 -326.00 377.00 -305.00 Q 376.00 -294.00 372.00 -269.00 Q 368.00 -244.00 363.50 -213.50 Q 359.00 -183.00 356.00 -155.50 Q 353.00 -128.00 353.00 -113.00 Q 353.00 -94.00 364.50 -86.00 Q 376.00 -78.00 391.00 -77.00 Q 399.00 -76.00 408.50 -77.50 Q 418.00 -79.00 425.00 -82.00 Q 431.00 -84.00 435.50 -86.00 Q 440.00 -88.00 441.00 -88.00 Q 448.00 -88.00 449.50 -84.00 Q 451.00 -80.00 451.00 -72.00 Q 451.00 -55.00 443.00 -35.00 Q 435.00 -15.00 419.00 -0.50 Q 403.00 14.00 378.00 14.00 Q 353.00 14.00 333.00 -11.00 Q 313.00 -36.00 313.00 -86.00 Q 313.00 -105.00 317.00 -137.50 Q 321.00 -170.00 326.00 -206.00 Q 331.00 -242.00 335.00 -271.00 Q 339.00 -300.00 339.00 -312.00 Q 339.00 -321.00 335.00 -329.00 Q 331.00 -337.00 323.00 -337.00 L 245.00 -340.00 Q 235.00 -341.00 229.00 -336.00 Q 223.00 -331.00 220.00 -319.00 Q 197.00 -231.00 188.50 -172.50 Q 180.00 -114.00 178.00 -77.00 Q 177.00 -52.00 179.00 -36.00 Q 181.00 -20.00 182.00 -10.00 Q 184.00 3.00 183.50 10.00 Q 183.00 17.00 172.00 17.00 Z"
    />
  </g>
</svg>
